G75*
%MOIN*%
%OFA0B0*%
%FSLAX25Y25*%
%IPPOS*%
%LPD*%
%AMOC8*
5,1,8,0,0,1.08239X$1,22.5*
%
%ADD10C,0.00000*%
%ADD11C,0.00500*%
%ADD12OC8,0.07000*%
%ADD13C,0.06000*%
%ADD14C,0.05600*%
%ADD15OC8,0.05600*%
%ADD16R,0.06400X0.02900*%
%ADD17R,0.04731X0.04337*%
%ADD18C,0.07800*%
%ADD19OC8,0.06400*%
%ADD20C,0.08274*%
%ADD21R,0.03550X0.05124*%
%ADD22R,0.08300X0.06300*%
%ADD23R,0.08300X0.15400*%
%ADD24R,0.05124X0.02565*%
%ADD25R,0.04337X0.04731*%
%ADD26R,0.14573X0.05124*%
%ADD27C,0.05550*%
%ADD28R,0.16400X0.06400*%
%ADD29R,0.08400X0.04400*%
%ADD30R,0.09200X0.03600*%
%ADD31R,0.04300X0.01600*%
%ADD32R,0.05912X0.04337*%
%ADD33R,0.05912X0.01975*%
%ADD34C,0.03746*%
%ADD35R,0.06306X0.10243*%
%ADD36R,0.06306X0.07487*%
%ADD37C,0.06699*%
%ADD38R,0.10400X0.05400*%
%ADD39OC8,0.06337*%
%ADD40C,0.00889*%
%ADD41R,0.04731X0.02959*%
D10*
X0015046Y0005000D02*
X0015046Y0215000D01*
X0269046Y0215000D01*
X0275046Y0209000D01*
X0275046Y0164000D01*
X0285046Y0154000D01*
X0285046Y0025000D01*
X0275046Y0015000D01*
X0275046Y0005000D01*
X0015046Y0005000D01*
X0028335Y0147520D02*
X0028337Y0147601D01*
X0028343Y0147683D01*
X0028353Y0147764D01*
X0028367Y0147844D01*
X0028384Y0147923D01*
X0028406Y0148002D01*
X0028431Y0148079D01*
X0028460Y0148156D01*
X0028493Y0148230D01*
X0028530Y0148303D01*
X0028569Y0148374D01*
X0028613Y0148443D01*
X0028659Y0148510D01*
X0028709Y0148574D01*
X0028762Y0148636D01*
X0028818Y0148696D01*
X0028876Y0148752D01*
X0028938Y0148806D01*
X0029002Y0148857D01*
X0029068Y0148904D01*
X0029136Y0148948D01*
X0029207Y0148989D01*
X0029279Y0149026D01*
X0029354Y0149060D01*
X0029429Y0149090D01*
X0029507Y0149116D01*
X0029585Y0149139D01*
X0029664Y0149157D01*
X0029744Y0149172D01*
X0029825Y0149183D01*
X0029906Y0149190D01*
X0029988Y0149193D01*
X0030069Y0149192D01*
X0030150Y0149187D01*
X0030231Y0149178D01*
X0030312Y0149165D01*
X0030392Y0149148D01*
X0030470Y0149128D01*
X0030548Y0149103D01*
X0030625Y0149075D01*
X0030700Y0149043D01*
X0030773Y0149008D01*
X0030844Y0148969D01*
X0030914Y0148926D01*
X0030981Y0148881D01*
X0031047Y0148832D01*
X0031109Y0148780D01*
X0031169Y0148724D01*
X0031226Y0148666D01*
X0031281Y0148606D01*
X0031332Y0148542D01*
X0031380Y0148477D01*
X0031425Y0148409D01*
X0031467Y0148339D01*
X0031505Y0148267D01*
X0031540Y0148193D01*
X0031571Y0148118D01*
X0031598Y0148041D01*
X0031621Y0147963D01*
X0031641Y0147884D01*
X0031657Y0147804D01*
X0031669Y0147723D01*
X0031677Y0147642D01*
X0031681Y0147561D01*
X0031681Y0147479D01*
X0031677Y0147398D01*
X0031669Y0147317D01*
X0031657Y0147236D01*
X0031641Y0147156D01*
X0031621Y0147077D01*
X0031598Y0146999D01*
X0031571Y0146922D01*
X0031540Y0146847D01*
X0031505Y0146773D01*
X0031467Y0146701D01*
X0031425Y0146631D01*
X0031380Y0146563D01*
X0031332Y0146498D01*
X0031281Y0146434D01*
X0031226Y0146374D01*
X0031169Y0146316D01*
X0031109Y0146260D01*
X0031047Y0146208D01*
X0030981Y0146159D01*
X0030914Y0146114D01*
X0030845Y0146071D01*
X0030773Y0146032D01*
X0030700Y0145997D01*
X0030625Y0145965D01*
X0030548Y0145937D01*
X0030470Y0145912D01*
X0030392Y0145892D01*
X0030312Y0145875D01*
X0030231Y0145862D01*
X0030150Y0145853D01*
X0030069Y0145848D01*
X0029988Y0145847D01*
X0029906Y0145850D01*
X0029825Y0145857D01*
X0029744Y0145868D01*
X0029664Y0145883D01*
X0029585Y0145901D01*
X0029507Y0145924D01*
X0029429Y0145950D01*
X0029354Y0145980D01*
X0029279Y0146014D01*
X0029207Y0146051D01*
X0029136Y0146092D01*
X0029068Y0146136D01*
X0029002Y0146183D01*
X0028938Y0146234D01*
X0028876Y0146288D01*
X0028818Y0146344D01*
X0028762Y0146404D01*
X0028709Y0146466D01*
X0028659Y0146530D01*
X0028613Y0146597D01*
X0028569Y0146666D01*
X0028530Y0146737D01*
X0028493Y0146810D01*
X0028460Y0146884D01*
X0028431Y0146961D01*
X0028406Y0147038D01*
X0028384Y0147117D01*
X0028367Y0147196D01*
X0028353Y0147276D01*
X0028343Y0147357D01*
X0028337Y0147439D01*
X0028335Y0147520D01*
X0028335Y0164480D02*
X0028337Y0164561D01*
X0028343Y0164643D01*
X0028353Y0164724D01*
X0028367Y0164804D01*
X0028384Y0164883D01*
X0028406Y0164962D01*
X0028431Y0165039D01*
X0028460Y0165116D01*
X0028493Y0165190D01*
X0028530Y0165263D01*
X0028569Y0165334D01*
X0028613Y0165403D01*
X0028659Y0165470D01*
X0028709Y0165534D01*
X0028762Y0165596D01*
X0028818Y0165656D01*
X0028876Y0165712D01*
X0028938Y0165766D01*
X0029002Y0165817D01*
X0029068Y0165864D01*
X0029136Y0165908D01*
X0029207Y0165949D01*
X0029279Y0165986D01*
X0029354Y0166020D01*
X0029429Y0166050D01*
X0029507Y0166076D01*
X0029585Y0166099D01*
X0029664Y0166117D01*
X0029744Y0166132D01*
X0029825Y0166143D01*
X0029906Y0166150D01*
X0029988Y0166153D01*
X0030069Y0166152D01*
X0030150Y0166147D01*
X0030231Y0166138D01*
X0030312Y0166125D01*
X0030392Y0166108D01*
X0030470Y0166088D01*
X0030548Y0166063D01*
X0030625Y0166035D01*
X0030700Y0166003D01*
X0030773Y0165968D01*
X0030844Y0165929D01*
X0030914Y0165886D01*
X0030981Y0165841D01*
X0031047Y0165792D01*
X0031109Y0165740D01*
X0031169Y0165684D01*
X0031226Y0165626D01*
X0031281Y0165566D01*
X0031332Y0165502D01*
X0031380Y0165437D01*
X0031425Y0165369D01*
X0031467Y0165299D01*
X0031505Y0165227D01*
X0031540Y0165153D01*
X0031571Y0165078D01*
X0031598Y0165001D01*
X0031621Y0164923D01*
X0031641Y0164844D01*
X0031657Y0164764D01*
X0031669Y0164683D01*
X0031677Y0164602D01*
X0031681Y0164521D01*
X0031681Y0164439D01*
X0031677Y0164358D01*
X0031669Y0164277D01*
X0031657Y0164196D01*
X0031641Y0164116D01*
X0031621Y0164037D01*
X0031598Y0163959D01*
X0031571Y0163882D01*
X0031540Y0163807D01*
X0031505Y0163733D01*
X0031467Y0163661D01*
X0031425Y0163591D01*
X0031380Y0163523D01*
X0031332Y0163458D01*
X0031281Y0163394D01*
X0031226Y0163334D01*
X0031169Y0163276D01*
X0031109Y0163220D01*
X0031047Y0163168D01*
X0030981Y0163119D01*
X0030914Y0163074D01*
X0030845Y0163031D01*
X0030773Y0162992D01*
X0030700Y0162957D01*
X0030625Y0162925D01*
X0030548Y0162897D01*
X0030470Y0162872D01*
X0030392Y0162852D01*
X0030312Y0162835D01*
X0030231Y0162822D01*
X0030150Y0162813D01*
X0030069Y0162808D01*
X0029988Y0162807D01*
X0029906Y0162810D01*
X0029825Y0162817D01*
X0029744Y0162828D01*
X0029664Y0162843D01*
X0029585Y0162861D01*
X0029507Y0162884D01*
X0029429Y0162910D01*
X0029354Y0162940D01*
X0029279Y0162974D01*
X0029207Y0163011D01*
X0029136Y0163052D01*
X0029068Y0163096D01*
X0029002Y0163143D01*
X0028938Y0163194D01*
X0028876Y0163248D01*
X0028818Y0163304D01*
X0028762Y0163364D01*
X0028709Y0163426D01*
X0028659Y0163490D01*
X0028613Y0163557D01*
X0028569Y0163626D01*
X0028530Y0163697D01*
X0028493Y0163770D01*
X0028460Y0163844D01*
X0028431Y0163921D01*
X0028406Y0163998D01*
X0028384Y0164077D01*
X0028367Y0164156D01*
X0028353Y0164236D01*
X0028343Y0164317D01*
X0028337Y0164399D01*
X0028335Y0164480D01*
X0277746Y0062300D02*
X0277746Y0057900D01*
X0281646Y0057900D01*
X0281646Y0053900D01*
X0285046Y0053900D01*
X0285046Y0053800D01*
X0281546Y0062300D02*
X0277746Y0062300D01*
X0281546Y0062300D02*
X0281546Y0066100D01*
X0285046Y0066100D01*
D11*
X0267975Y0035000D02*
X0267977Y0035174D01*
X0267984Y0035347D01*
X0267994Y0035520D01*
X0268009Y0035693D01*
X0268028Y0035866D01*
X0268052Y0036038D01*
X0268079Y0036209D01*
X0268111Y0036379D01*
X0268147Y0036549D01*
X0268187Y0036718D01*
X0268231Y0036886D01*
X0268279Y0037053D01*
X0268332Y0037218D01*
X0268388Y0037382D01*
X0268449Y0037545D01*
X0268513Y0037706D01*
X0268582Y0037865D01*
X0268654Y0038023D01*
X0268730Y0038179D01*
X0268810Y0038333D01*
X0268894Y0038485D01*
X0268981Y0038635D01*
X0269072Y0038783D01*
X0269167Y0038928D01*
X0269265Y0039072D01*
X0269367Y0039212D01*
X0269472Y0039350D01*
X0269580Y0039486D01*
X0269692Y0039619D01*
X0269807Y0039749D01*
X0269925Y0039876D01*
X0270046Y0040000D01*
X0270170Y0040121D01*
X0270297Y0040239D01*
X0270427Y0040354D01*
X0270560Y0040466D01*
X0270696Y0040574D01*
X0270834Y0040679D01*
X0270974Y0040781D01*
X0271118Y0040879D01*
X0271263Y0040974D01*
X0271411Y0041065D01*
X0271561Y0041152D01*
X0271713Y0041236D01*
X0271867Y0041316D01*
X0272023Y0041392D01*
X0272181Y0041464D01*
X0272340Y0041533D01*
X0272501Y0041597D01*
X0272664Y0041658D01*
X0272828Y0041714D01*
X0272993Y0041767D01*
X0273160Y0041815D01*
X0273328Y0041859D01*
X0273497Y0041899D01*
X0273667Y0041935D01*
X0273837Y0041967D01*
X0274008Y0041994D01*
X0274180Y0042018D01*
X0274353Y0042037D01*
X0274526Y0042052D01*
X0274699Y0042062D01*
X0274872Y0042069D01*
X0275046Y0042071D01*
X0275220Y0042069D01*
X0275393Y0042062D01*
X0275566Y0042052D01*
X0275739Y0042037D01*
X0275912Y0042018D01*
X0276084Y0041994D01*
X0276255Y0041967D01*
X0276425Y0041935D01*
X0276595Y0041899D01*
X0276764Y0041859D01*
X0276932Y0041815D01*
X0277099Y0041767D01*
X0277264Y0041714D01*
X0277428Y0041658D01*
X0277591Y0041597D01*
X0277752Y0041533D01*
X0277911Y0041464D01*
X0278069Y0041392D01*
X0278225Y0041316D01*
X0278379Y0041236D01*
X0278531Y0041152D01*
X0278681Y0041065D01*
X0278829Y0040974D01*
X0278974Y0040879D01*
X0279118Y0040781D01*
X0279258Y0040679D01*
X0279396Y0040574D01*
X0279532Y0040466D01*
X0279665Y0040354D01*
X0279795Y0040239D01*
X0279922Y0040121D01*
X0280046Y0040000D01*
X0280167Y0039876D01*
X0280285Y0039749D01*
X0280400Y0039619D01*
X0280512Y0039486D01*
X0280620Y0039350D01*
X0280725Y0039212D01*
X0280827Y0039072D01*
X0280925Y0038928D01*
X0281020Y0038783D01*
X0281111Y0038635D01*
X0281198Y0038485D01*
X0281282Y0038333D01*
X0281362Y0038179D01*
X0281438Y0038023D01*
X0281510Y0037865D01*
X0281579Y0037706D01*
X0281643Y0037545D01*
X0281704Y0037382D01*
X0281760Y0037218D01*
X0281813Y0037053D01*
X0281861Y0036886D01*
X0281905Y0036718D01*
X0281945Y0036549D01*
X0281981Y0036379D01*
X0282013Y0036209D01*
X0282040Y0036038D01*
X0282064Y0035866D01*
X0282083Y0035693D01*
X0282098Y0035520D01*
X0282108Y0035347D01*
X0282115Y0035174D01*
X0282117Y0035000D01*
X0282115Y0034826D01*
X0282108Y0034653D01*
X0282098Y0034480D01*
X0282083Y0034307D01*
X0282064Y0034134D01*
X0282040Y0033962D01*
X0282013Y0033791D01*
X0281981Y0033621D01*
X0281945Y0033451D01*
X0281905Y0033282D01*
X0281861Y0033114D01*
X0281813Y0032947D01*
X0281760Y0032782D01*
X0281704Y0032618D01*
X0281643Y0032455D01*
X0281579Y0032294D01*
X0281510Y0032135D01*
X0281438Y0031977D01*
X0281362Y0031821D01*
X0281282Y0031667D01*
X0281198Y0031515D01*
X0281111Y0031365D01*
X0281020Y0031217D01*
X0280925Y0031072D01*
X0280827Y0030928D01*
X0280725Y0030788D01*
X0280620Y0030650D01*
X0280512Y0030514D01*
X0280400Y0030381D01*
X0280285Y0030251D01*
X0280167Y0030124D01*
X0280046Y0030000D01*
X0279922Y0029879D01*
X0279795Y0029761D01*
X0279665Y0029646D01*
X0279532Y0029534D01*
X0279396Y0029426D01*
X0279258Y0029321D01*
X0279118Y0029219D01*
X0278974Y0029121D01*
X0278829Y0029026D01*
X0278681Y0028935D01*
X0278531Y0028848D01*
X0278379Y0028764D01*
X0278225Y0028684D01*
X0278069Y0028608D01*
X0277911Y0028536D01*
X0277752Y0028467D01*
X0277591Y0028403D01*
X0277428Y0028342D01*
X0277264Y0028286D01*
X0277099Y0028233D01*
X0276932Y0028185D01*
X0276764Y0028141D01*
X0276595Y0028101D01*
X0276425Y0028065D01*
X0276255Y0028033D01*
X0276084Y0028006D01*
X0275912Y0027982D01*
X0275739Y0027963D01*
X0275566Y0027948D01*
X0275393Y0027938D01*
X0275220Y0027931D01*
X0275046Y0027929D01*
X0274872Y0027931D01*
X0274699Y0027938D01*
X0274526Y0027948D01*
X0274353Y0027963D01*
X0274180Y0027982D01*
X0274008Y0028006D01*
X0273837Y0028033D01*
X0273667Y0028065D01*
X0273497Y0028101D01*
X0273328Y0028141D01*
X0273160Y0028185D01*
X0272993Y0028233D01*
X0272828Y0028286D01*
X0272664Y0028342D01*
X0272501Y0028403D01*
X0272340Y0028467D01*
X0272181Y0028536D01*
X0272023Y0028608D01*
X0271867Y0028684D01*
X0271713Y0028764D01*
X0271561Y0028848D01*
X0271411Y0028935D01*
X0271263Y0029026D01*
X0271118Y0029121D01*
X0270974Y0029219D01*
X0270834Y0029321D01*
X0270696Y0029426D01*
X0270560Y0029534D01*
X0270427Y0029646D01*
X0270297Y0029761D01*
X0270170Y0029879D01*
X0270046Y0030000D01*
X0269925Y0030124D01*
X0269807Y0030251D01*
X0269692Y0030381D01*
X0269580Y0030514D01*
X0269472Y0030650D01*
X0269367Y0030788D01*
X0269265Y0030928D01*
X0269167Y0031072D01*
X0269072Y0031217D01*
X0268981Y0031365D01*
X0268894Y0031515D01*
X0268810Y0031667D01*
X0268730Y0031821D01*
X0268654Y0031977D01*
X0268582Y0032135D01*
X0268513Y0032294D01*
X0268449Y0032455D01*
X0268388Y0032618D01*
X0268332Y0032782D01*
X0268279Y0032947D01*
X0268231Y0033114D01*
X0268187Y0033282D01*
X0268147Y0033451D01*
X0268111Y0033621D01*
X0268079Y0033791D01*
X0268052Y0033962D01*
X0268028Y0034134D01*
X0268009Y0034307D01*
X0267994Y0034480D01*
X0267984Y0034653D01*
X0267977Y0034826D01*
X0267975Y0035000D01*
X0220462Y0067569D02*
X0219977Y0067084D01*
X0219415Y0066690D01*
X0218793Y0066400D01*
X0218130Y0066223D01*
X0217446Y0066163D01*
X0216763Y0066223D01*
X0216100Y0066400D01*
X0215478Y0066690D01*
X0214916Y0067084D01*
X0214431Y0067569D01*
X0214037Y0068131D01*
X0213747Y0068753D01*
X0213569Y0069416D01*
X0213509Y0070100D01*
X0213569Y0070784D01*
X0213747Y0071447D01*
X0214037Y0072069D01*
X0214431Y0072631D01*
X0214916Y0073116D01*
X0215478Y0073510D01*
X0216100Y0073800D01*
X0216763Y0073977D01*
X0217446Y0074037D01*
X0218130Y0073977D01*
X0218793Y0073800D01*
X0219415Y0073510D01*
X0219977Y0073116D01*
X0220462Y0072631D01*
X0220856Y0072069D01*
X0221146Y0071447D01*
X0221324Y0070784D01*
X0221383Y0070100D01*
X0221324Y0069416D01*
X0221146Y0068753D01*
X0220856Y0068131D01*
X0220462Y0067569D01*
X0220633Y0067812D02*
X0214260Y0067812D01*
X0213953Y0068311D02*
X0220940Y0068311D01*
X0221161Y0068809D02*
X0213732Y0068809D01*
X0213598Y0069308D02*
X0221295Y0069308D01*
X0221358Y0069806D02*
X0213535Y0069806D01*
X0213527Y0070305D02*
X0221366Y0070305D01*
X0221318Y0070803D02*
X0213575Y0070803D01*
X0213708Y0071302D02*
X0221185Y0071302D01*
X0220981Y0071801D02*
X0213912Y0071801D01*
X0214198Y0072299D02*
X0220695Y0072299D01*
X0220295Y0072798D02*
X0214597Y0072798D01*
X0215173Y0073296D02*
X0219720Y0073296D01*
X0218804Y0073795D02*
X0216089Y0073795D01*
X0214686Y0067314D02*
X0220207Y0067314D01*
X0219593Y0066815D02*
X0215299Y0066815D01*
X0216412Y0066317D02*
X0218481Y0066317D01*
X0267975Y0145000D02*
X0267977Y0145174D01*
X0267984Y0145347D01*
X0267994Y0145520D01*
X0268009Y0145693D01*
X0268028Y0145866D01*
X0268052Y0146038D01*
X0268079Y0146209D01*
X0268111Y0146379D01*
X0268147Y0146549D01*
X0268187Y0146718D01*
X0268231Y0146886D01*
X0268279Y0147053D01*
X0268332Y0147218D01*
X0268388Y0147382D01*
X0268449Y0147545D01*
X0268513Y0147706D01*
X0268582Y0147865D01*
X0268654Y0148023D01*
X0268730Y0148179D01*
X0268810Y0148333D01*
X0268894Y0148485D01*
X0268981Y0148635D01*
X0269072Y0148783D01*
X0269167Y0148928D01*
X0269265Y0149072D01*
X0269367Y0149212D01*
X0269472Y0149350D01*
X0269580Y0149486D01*
X0269692Y0149619D01*
X0269807Y0149749D01*
X0269925Y0149876D01*
X0270046Y0150000D01*
X0270170Y0150121D01*
X0270297Y0150239D01*
X0270427Y0150354D01*
X0270560Y0150466D01*
X0270696Y0150574D01*
X0270834Y0150679D01*
X0270974Y0150781D01*
X0271118Y0150879D01*
X0271263Y0150974D01*
X0271411Y0151065D01*
X0271561Y0151152D01*
X0271713Y0151236D01*
X0271867Y0151316D01*
X0272023Y0151392D01*
X0272181Y0151464D01*
X0272340Y0151533D01*
X0272501Y0151597D01*
X0272664Y0151658D01*
X0272828Y0151714D01*
X0272993Y0151767D01*
X0273160Y0151815D01*
X0273328Y0151859D01*
X0273497Y0151899D01*
X0273667Y0151935D01*
X0273837Y0151967D01*
X0274008Y0151994D01*
X0274180Y0152018D01*
X0274353Y0152037D01*
X0274526Y0152052D01*
X0274699Y0152062D01*
X0274872Y0152069D01*
X0275046Y0152071D01*
X0275220Y0152069D01*
X0275393Y0152062D01*
X0275566Y0152052D01*
X0275739Y0152037D01*
X0275912Y0152018D01*
X0276084Y0151994D01*
X0276255Y0151967D01*
X0276425Y0151935D01*
X0276595Y0151899D01*
X0276764Y0151859D01*
X0276932Y0151815D01*
X0277099Y0151767D01*
X0277264Y0151714D01*
X0277428Y0151658D01*
X0277591Y0151597D01*
X0277752Y0151533D01*
X0277911Y0151464D01*
X0278069Y0151392D01*
X0278225Y0151316D01*
X0278379Y0151236D01*
X0278531Y0151152D01*
X0278681Y0151065D01*
X0278829Y0150974D01*
X0278974Y0150879D01*
X0279118Y0150781D01*
X0279258Y0150679D01*
X0279396Y0150574D01*
X0279532Y0150466D01*
X0279665Y0150354D01*
X0279795Y0150239D01*
X0279922Y0150121D01*
X0280046Y0150000D01*
X0280167Y0149876D01*
X0280285Y0149749D01*
X0280400Y0149619D01*
X0280512Y0149486D01*
X0280620Y0149350D01*
X0280725Y0149212D01*
X0280827Y0149072D01*
X0280925Y0148928D01*
X0281020Y0148783D01*
X0281111Y0148635D01*
X0281198Y0148485D01*
X0281282Y0148333D01*
X0281362Y0148179D01*
X0281438Y0148023D01*
X0281510Y0147865D01*
X0281579Y0147706D01*
X0281643Y0147545D01*
X0281704Y0147382D01*
X0281760Y0147218D01*
X0281813Y0147053D01*
X0281861Y0146886D01*
X0281905Y0146718D01*
X0281945Y0146549D01*
X0281981Y0146379D01*
X0282013Y0146209D01*
X0282040Y0146038D01*
X0282064Y0145866D01*
X0282083Y0145693D01*
X0282098Y0145520D01*
X0282108Y0145347D01*
X0282115Y0145174D01*
X0282117Y0145000D01*
X0282115Y0144826D01*
X0282108Y0144653D01*
X0282098Y0144480D01*
X0282083Y0144307D01*
X0282064Y0144134D01*
X0282040Y0143962D01*
X0282013Y0143791D01*
X0281981Y0143621D01*
X0281945Y0143451D01*
X0281905Y0143282D01*
X0281861Y0143114D01*
X0281813Y0142947D01*
X0281760Y0142782D01*
X0281704Y0142618D01*
X0281643Y0142455D01*
X0281579Y0142294D01*
X0281510Y0142135D01*
X0281438Y0141977D01*
X0281362Y0141821D01*
X0281282Y0141667D01*
X0281198Y0141515D01*
X0281111Y0141365D01*
X0281020Y0141217D01*
X0280925Y0141072D01*
X0280827Y0140928D01*
X0280725Y0140788D01*
X0280620Y0140650D01*
X0280512Y0140514D01*
X0280400Y0140381D01*
X0280285Y0140251D01*
X0280167Y0140124D01*
X0280046Y0140000D01*
X0279922Y0139879D01*
X0279795Y0139761D01*
X0279665Y0139646D01*
X0279532Y0139534D01*
X0279396Y0139426D01*
X0279258Y0139321D01*
X0279118Y0139219D01*
X0278974Y0139121D01*
X0278829Y0139026D01*
X0278681Y0138935D01*
X0278531Y0138848D01*
X0278379Y0138764D01*
X0278225Y0138684D01*
X0278069Y0138608D01*
X0277911Y0138536D01*
X0277752Y0138467D01*
X0277591Y0138403D01*
X0277428Y0138342D01*
X0277264Y0138286D01*
X0277099Y0138233D01*
X0276932Y0138185D01*
X0276764Y0138141D01*
X0276595Y0138101D01*
X0276425Y0138065D01*
X0276255Y0138033D01*
X0276084Y0138006D01*
X0275912Y0137982D01*
X0275739Y0137963D01*
X0275566Y0137948D01*
X0275393Y0137938D01*
X0275220Y0137931D01*
X0275046Y0137929D01*
X0274872Y0137931D01*
X0274699Y0137938D01*
X0274526Y0137948D01*
X0274353Y0137963D01*
X0274180Y0137982D01*
X0274008Y0138006D01*
X0273837Y0138033D01*
X0273667Y0138065D01*
X0273497Y0138101D01*
X0273328Y0138141D01*
X0273160Y0138185D01*
X0272993Y0138233D01*
X0272828Y0138286D01*
X0272664Y0138342D01*
X0272501Y0138403D01*
X0272340Y0138467D01*
X0272181Y0138536D01*
X0272023Y0138608D01*
X0271867Y0138684D01*
X0271713Y0138764D01*
X0271561Y0138848D01*
X0271411Y0138935D01*
X0271263Y0139026D01*
X0271118Y0139121D01*
X0270974Y0139219D01*
X0270834Y0139321D01*
X0270696Y0139426D01*
X0270560Y0139534D01*
X0270427Y0139646D01*
X0270297Y0139761D01*
X0270170Y0139879D01*
X0270046Y0140000D01*
X0269925Y0140124D01*
X0269807Y0140251D01*
X0269692Y0140381D01*
X0269580Y0140514D01*
X0269472Y0140650D01*
X0269367Y0140788D01*
X0269265Y0140928D01*
X0269167Y0141072D01*
X0269072Y0141217D01*
X0268981Y0141365D01*
X0268894Y0141515D01*
X0268810Y0141667D01*
X0268730Y0141821D01*
X0268654Y0141977D01*
X0268582Y0142135D01*
X0268513Y0142294D01*
X0268449Y0142455D01*
X0268388Y0142618D01*
X0268332Y0142782D01*
X0268279Y0142947D01*
X0268231Y0143114D01*
X0268187Y0143282D01*
X0268147Y0143451D01*
X0268111Y0143621D01*
X0268079Y0143791D01*
X0268052Y0143962D01*
X0268028Y0144134D01*
X0268009Y0144307D01*
X0267994Y0144480D01*
X0267984Y0144653D01*
X0267977Y0144826D01*
X0267975Y0145000D01*
X0067975Y0205000D02*
X0067977Y0205174D01*
X0067984Y0205347D01*
X0067994Y0205520D01*
X0068009Y0205693D01*
X0068028Y0205866D01*
X0068052Y0206038D01*
X0068079Y0206209D01*
X0068111Y0206379D01*
X0068147Y0206549D01*
X0068187Y0206718D01*
X0068231Y0206886D01*
X0068279Y0207053D01*
X0068332Y0207218D01*
X0068388Y0207382D01*
X0068449Y0207545D01*
X0068513Y0207706D01*
X0068582Y0207865D01*
X0068654Y0208023D01*
X0068730Y0208179D01*
X0068810Y0208333D01*
X0068894Y0208485D01*
X0068981Y0208635D01*
X0069072Y0208783D01*
X0069167Y0208928D01*
X0069265Y0209072D01*
X0069367Y0209212D01*
X0069472Y0209350D01*
X0069580Y0209486D01*
X0069692Y0209619D01*
X0069807Y0209749D01*
X0069925Y0209876D01*
X0070046Y0210000D01*
X0070170Y0210121D01*
X0070297Y0210239D01*
X0070427Y0210354D01*
X0070560Y0210466D01*
X0070696Y0210574D01*
X0070834Y0210679D01*
X0070974Y0210781D01*
X0071118Y0210879D01*
X0071263Y0210974D01*
X0071411Y0211065D01*
X0071561Y0211152D01*
X0071713Y0211236D01*
X0071867Y0211316D01*
X0072023Y0211392D01*
X0072181Y0211464D01*
X0072340Y0211533D01*
X0072501Y0211597D01*
X0072664Y0211658D01*
X0072828Y0211714D01*
X0072993Y0211767D01*
X0073160Y0211815D01*
X0073328Y0211859D01*
X0073497Y0211899D01*
X0073667Y0211935D01*
X0073837Y0211967D01*
X0074008Y0211994D01*
X0074180Y0212018D01*
X0074353Y0212037D01*
X0074526Y0212052D01*
X0074699Y0212062D01*
X0074872Y0212069D01*
X0075046Y0212071D01*
X0075220Y0212069D01*
X0075393Y0212062D01*
X0075566Y0212052D01*
X0075739Y0212037D01*
X0075912Y0212018D01*
X0076084Y0211994D01*
X0076255Y0211967D01*
X0076425Y0211935D01*
X0076595Y0211899D01*
X0076764Y0211859D01*
X0076932Y0211815D01*
X0077099Y0211767D01*
X0077264Y0211714D01*
X0077428Y0211658D01*
X0077591Y0211597D01*
X0077752Y0211533D01*
X0077911Y0211464D01*
X0078069Y0211392D01*
X0078225Y0211316D01*
X0078379Y0211236D01*
X0078531Y0211152D01*
X0078681Y0211065D01*
X0078829Y0210974D01*
X0078974Y0210879D01*
X0079118Y0210781D01*
X0079258Y0210679D01*
X0079396Y0210574D01*
X0079532Y0210466D01*
X0079665Y0210354D01*
X0079795Y0210239D01*
X0079922Y0210121D01*
X0080046Y0210000D01*
X0080167Y0209876D01*
X0080285Y0209749D01*
X0080400Y0209619D01*
X0080512Y0209486D01*
X0080620Y0209350D01*
X0080725Y0209212D01*
X0080827Y0209072D01*
X0080925Y0208928D01*
X0081020Y0208783D01*
X0081111Y0208635D01*
X0081198Y0208485D01*
X0081282Y0208333D01*
X0081362Y0208179D01*
X0081438Y0208023D01*
X0081510Y0207865D01*
X0081579Y0207706D01*
X0081643Y0207545D01*
X0081704Y0207382D01*
X0081760Y0207218D01*
X0081813Y0207053D01*
X0081861Y0206886D01*
X0081905Y0206718D01*
X0081945Y0206549D01*
X0081981Y0206379D01*
X0082013Y0206209D01*
X0082040Y0206038D01*
X0082064Y0205866D01*
X0082083Y0205693D01*
X0082098Y0205520D01*
X0082108Y0205347D01*
X0082115Y0205174D01*
X0082117Y0205000D01*
X0082115Y0204826D01*
X0082108Y0204653D01*
X0082098Y0204480D01*
X0082083Y0204307D01*
X0082064Y0204134D01*
X0082040Y0203962D01*
X0082013Y0203791D01*
X0081981Y0203621D01*
X0081945Y0203451D01*
X0081905Y0203282D01*
X0081861Y0203114D01*
X0081813Y0202947D01*
X0081760Y0202782D01*
X0081704Y0202618D01*
X0081643Y0202455D01*
X0081579Y0202294D01*
X0081510Y0202135D01*
X0081438Y0201977D01*
X0081362Y0201821D01*
X0081282Y0201667D01*
X0081198Y0201515D01*
X0081111Y0201365D01*
X0081020Y0201217D01*
X0080925Y0201072D01*
X0080827Y0200928D01*
X0080725Y0200788D01*
X0080620Y0200650D01*
X0080512Y0200514D01*
X0080400Y0200381D01*
X0080285Y0200251D01*
X0080167Y0200124D01*
X0080046Y0200000D01*
X0079922Y0199879D01*
X0079795Y0199761D01*
X0079665Y0199646D01*
X0079532Y0199534D01*
X0079396Y0199426D01*
X0079258Y0199321D01*
X0079118Y0199219D01*
X0078974Y0199121D01*
X0078829Y0199026D01*
X0078681Y0198935D01*
X0078531Y0198848D01*
X0078379Y0198764D01*
X0078225Y0198684D01*
X0078069Y0198608D01*
X0077911Y0198536D01*
X0077752Y0198467D01*
X0077591Y0198403D01*
X0077428Y0198342D01*
X0077264Y0198286D01*
X0077099Y0198233D01*
X0076932Y0198185D01*
X0076764Y0198141D01*
X0076595Y0198101D01*
X0076425Y0198065D01*
X0076255Y0198033D01*
X0076084Y0198006D01*
X0075912Y0197982D01*
X0075739Y0197963D01*
X0075566Y0197948D01*
X0075393Y0197938D01*
X0075220Y0197931D01*
X0075046Y0197929D01*
X0074872Y0197931D01*
X0074699Y0197938D01*
X0074526Y0197948D01*
X0074353Y0197963D01*
X0074180Y0197982D01*
X0074008Y0198006D01*
X0073837Y0198033D01*
X0073667Y0198065D01*
X0073497Y0198101D01*
X0073328Y0198141D01*
X0073160Y0198185D01*
X0072993Y0198233D01*
X0072828Y0198286D01*
X0072664Y0198342D01*
X0072501Y0198403D01*
X0072340Y0198467D01*
X0072181Y0198536D01*
X0072023Y0198608D01*
X0071867Y0198684D01*
X0071713Y0198764D01*
X0071561Y0198848D01*
X0071411Y0198935D01*
X0071263Y0199026D01*
X0071118Y0199121D01*
X0070974Y0199219D01*
X0070834Y0199321D01*
X0070696Y0199426D01*
X0070560Y0199534D01*
X0070427Y0199646D01*
X0070297Y0199761D01*
X0070170Y0199879D01*
X0070046Y0200000D01*
X0069925Y0200124D01*
X0069807Y0200251D01*
X0069692Y0200381D01*
X0069580Y0200514D01*
X0069472Y0200650D01*
X0069367Y0200788D01*
X0069265Y0200928D01*
X0069167Y0201072D01*
X0069072Y0201217D01*
X0068981Y0201365D01*
X0068894Y0201515D01*
X0068810Y0201667D01*
X0068730Y0201821D01*
X0068654Y0201977D01*
X0068582Y0202135D01*
X0068513Y0202294D01*
X0068449Y0202455D01*
X0068388Y0202618D01*
X0068332Y0202782D01*
X0068279Y0202947D01*
X0068231Y0203114D01*
X0068187Y0203282D01*
X0068147Y0203451D01*
X0068111Y0203621D01*
X0068079Y0203791D01*
X0068052Y0203962D01*
X0068028Y0204134D01*
X0068009Y0204307D01*
X0067994Y0204480D01*
X0067984Y0204653D01*
X0067977Y0204826D01*
X0067975Y0205000D01*
X0039724Y0198084D02*
X0039546Y0198747D01*
X0039256Y0199369D01*
X0038862Y0199931D01*
X0038377Y0200416D01*
X0037815Y0200810D01*
X0037193Y0201100D01*
X0036530Y0201277D01*
X0035846Y0201337D01*
X0035163Y0201277D01*
X0034500Y0201100D01*
X0033878Y0200810D01*
X0033316Y0200416D01*
X0032831Y0199931D01*
X0032437Y0199369D01*
X0032147Y0198747D01*
X0031969Y0198084D01*
X0031909Y0197400D01*
X0031969Y0196716D01*
X0032147Y0196053D01*
X0032437Y0195431D01*
X0039256Y0195431D01*
X0039546Y0196053D01*
X0039724Y0196716D01*
X0039783Y0197400D01*
X0039724Y0198084D01*
X0039738Y0197924D02*
X0031955Y0197924D01*
X0031912Y0197425D02*
X0039781Y0197425D01*
X0039742Y0196927D02*
X0031951Y0196927D01*
X0032046Y0196428D02*
X0039646Y0196428D01*
X0039488Y0195930D02*
X0032205Y0195930D01*
X0032437Y0195431D02*
X0032831Y0194869D01*
X0033316Y0194384D01*
X0033878Y0193990D01*
X0034500Y0193700D01*
X0035163Y0193523D01*
X0035846Y0193463D01*
X0036530Y0193523D01*
X0037193Y0193700D01*
X0037815Y0193990D01*
X0038377Y0194384D01*
X0038862Y0194869D01*
X0039256Y0195431D01*
X0038907Y0194933D02*
X0032786Y0194933D01*
X0033266Y0194434D02*
X0038427Y0194434D01*
X0037698Y0193936D02*
X0033995Y0193936D01*
X0032060Y0198422D02*
X0039633Y0198422D01*
X0039465Y0198921D02*
X0032228Y0198921D01*
X0032473Y0199419D02*
X0039220Y0199419D01*
X0038871Y0199918D02*
X0032822Y0199918D01*
X0033317Y0200416D02*
X0038376Y0200416D01*
X0037589Y0200915D02*
X0034104Y0200915D01*
X0062975Y0015000D02*
X0062977Y0015174D01*
X0062984Y0015347D01*
X0062994Y0015520D01*
X0063009Y0015693D01*
X0063028Y0015866D01*
X0063052Y0016038D01*
X0063079Y0016209D01*
X0063111Y0016379D01*
X0063147Y0016549D01*
X0063187Y0016718D01*
X0063231Y0016886D01*
X0063279Y0017053D01*
X0063332Y0017218D01*
X0063388Y0017382D01*
X0063449Y0017545D01*
X0063513Y0017706D01*
X0063582Y0017865D01*
X0063654Y0018023D01*
X0063730Y0018179D01*
X0063810Y0018333D01*
X0063894Y0018485D01*
X0063981Y0018635D01*
X0064072Y0018783D01*
X0064167Y0018928D01*
X0064265Y0019072D01*
X0064367Y0019212D01*
X0064472Y0019350D01*
X0064580Y0019486D01*
X0064692Y0019619D01*
X0064807Y0019749D01*
X0064925Y0019876D01*
X0065046Y0020000D01*
X0065170Y0020121D01*
X0065297Y0020239D01*
X0065427Y0020354D01*
X0065560Y0020466D01*
X0065696Y0020574D01*
X0065834Y0020679D01*
X0065974Y0020781D01*
X0066118Y0020879D01*
X0066263Y0020974D01*
X0066411Y0021065D01*
X0066561Y0021152D01*
X0066713Y0021236D01*
X0066867Y0021316D01*
X0067023Y0021392D01*
X0067181Y0021464D01*
X0067340Y0021533D01*
X0067501Y0021597D01*
X0067664Y0021658D01*
X0067828Y0021714D01*
X0067993Y0021767D01*
X0068160Y0021815D01*
X0068328Y0021859D01*
X0068497Y0021899D01*
X0068667Y0021935D01*
X0068837Y0021967D01*
X0069008Y0021994D01*
X0069180Y0022018D01*
X0069353Y0022037D01*
X0069526Y0022052D01*
X0069699Y0022062D01*
X0069872Y0022069D01*
X0070046Y0022071D01*
X0070220Y0022069D01*
X0070393Y0022062D01*
X0070566Y0022052D01*
X0070739Y0022037D01*
X0070912Y0022018D01*
X0071084Y0021994D01*
X0071255Y0021967D01*
X0071425Y0021935D01*
X0071595Y0021899D01*
X0071764Y0021859D01*
X0071932Y0021815D01*
X0072099Y0021767D01*
X0072264Y0021714D01*
X0072428Y0021658D01*
X0072591Y0021597D01*
X0072752Y0021533D01*
X0072911Y0021464D01*
X0073069Y0021392D01*
X0073225Y0021316D01*
X0073379Y0021236D01*
X0073531Y0021152D01*
X0073681Y0021065D01*
X0073829Y0020974D01*
X0073974Y0020879D01*
X0074118Y0020781D01*
X0074258Y0020679D01*
X0074396Y0020574D01*
X0074532Y0020466D01*
X0074665Y0020354D01*
X0074795Y0020239D01*
X0074922Y0020121D01*
X0075046Y0020000D01*
X0075167Y0019876D01*
X0075285Y0019749D01*
X0075400Y0019619D01*
X0075512Y0019486D01*
X0075620Y0019350D01*
X0075725Y0019212D01*
X0075827Y0019072D01*
X0075925Y0018928D01*
X0076020Y0018783D01*
X0076111Y0018635D01*
X0076198Y0018485D01*
X0076282Y0018333D01*
X0076362Y0018179D01*
X0076438Y0018023D01*
X0076510Y0017865D01*
X0076579Y0017706D01*
X0076643Y0017545D01*
X0076704Y0017382D01*
X0076760Y0017218D01*
X0076813Y0017053D01*
X0076861Y0016886D01*
X0076905Y0016718D01*
X0076945Y0016549D01*
X0076981Y0016379D01*
X0077013Y0016209D01*
X0077040Y0016038D01*
X0077064Y0015866D01*
X0077083Y0015693D01*
X0077098Y0015520D01*
X0077108Y0015347D01*
X0077115Y0015174D01*
X0077117Y0015000D01*
X0077115Y0014826D01*
X0077108Y0014653D01*
X0077098Y0014480D01*
X0077083Y0014307D01*
X0077064Y0014134D01*
X0077040Y0013962D01*
X0077013Y0013791D01*
X0076981Y0013621D01*
X0076945Y0013451D01*
X0076905Y0013282D01*
X0076861Y0013114D01*
X0076813Y0012947D01*
X0076760Y0012782D01*
X0076704Y0012618D01*
X0076643Y0012455D01*
X0076579Y0012294D01*
X0076510Y0012135D01*
X0076438Y0011977D01*
X0076362Y0011821D01*
X0076282Y0011667D01*
X0076198Y0011515D01*
X0076111Y0011365D01*
X0076020Y0011217D01*
X0075925Y0011072D01*
X0075827Y0010928D01*
X0075725Y0010788D01*
X0075620Y0010650D01*
X0075512Y0010514D01*
X0075400Y0010381D01*
X0075285Y0010251D01*
X0075167Y0010124D01*
X0075046Y0010000D01*
X0074922Y0009879D01*
X0074795Y0009761D01*
X0074665Y0009646D01*
X0074532Y0009534D01*
X0074396Y0009426D01*
X0074258Y0009321D01*
X0074118Y0009219D01*
X0073974Y0009121D01*
X0073829Y0009026D01*
X0073681Y0008935D01*
X0073531Y0008848D01*
X0073379Y0008764D01*
X0073225Y0008684D01*
X0073069Y0008608D01*
X0072911Y0008536D01*
X0072752Y0008467D01*
X0072591Y0008403D01*
X0072428Y0008342D01*
X0072264Y0008286D01*
X0072099Y0008233D01*
X0071932Y0008185D01*
X0071764Y0008141D01*
X0071595Y0008101D01*
X0071425Y0008065D01*
X0071255Y0008033D01*
X0071084Y0008006D01*
X0070912Y0007982D01*
X0070739Y0007963D01*
X0070566Y0007948D01*
X0070393Y0007938D01*
X0070220Y0007931D01*
X0070046Y0007929D01*
X0069872Y0007931D01*
X0069699Y0007938D01*
X0069526Y0007948D01*
X0069353Y0007963D01*
X0069180Y0007982D01*
X0069008Y0008006D01*
X0068837Y0008033D01*
X0068667Y0008065D01*
X0068497Y0008101D01*
X0068328Y0008141D01*
X0068160Y0008185D01*
X0067993Y0008233D01*
X0067828Y0008286D01*
X0067664Y0008342D01*
X0067501Y0008403D01*
X0067340Y0008467D01*
X0067181Y0008536D01*
X0067023Y0008608D01*
X0066867Y0008684D01*
X0066713Y0008764D01*
X0066561Y0008848D01*
X0066411Y0008935D01*
X0066263Y0009026D01*
X0066118Y0009121D01*
X0065974Y0009219D01*
X0065834Y0009321D01*
X0065696Y0009426D01*
X0065560Y0009534D01*
X0065427Y0009646D01*
X0065297Y0009761D01*
X0065170Y0009879D01*
X0065046Y0010000D01*
X0064925Y0010124D01*
X0064807Y0010251D01*
X0064692Y0010381D01*
X0064580Y0010514D01*
X0064472Y0010650D01*
X0064367Y0010788D01*
X0064265Y0010928D01*
X0064167Y0011072D01*
X0064072Y0011217D01*
X0063981Y0011365D01*
X0063894Y0011515D01*
X0063810Y0011667D01*
X0063730Y0011821D01*
X0063654Y0011977D01*
X0063582Y0012135D01*
X0063513Y0012294D01*
X0063449Y0012455D01*
X0063388Y0012618D01*
X0063332Y0012782D01*
X0063279Y0012947D01*
X0063231Y0013114D01*
X0063187Y0013282D01*
X0063147Y0013451D01*
X0063111Y0013621D01*
X0063079Y0013791D01*
X0063052Y0013962D01*
X0063028Y0014134D01*
X0063009Y0014307D01*
X0062994Y0014480D01*
X0062984Y0014653D01*
X0062977Y0014826D01*
X0062975Y0015000D01*
D12*
X0125046Y0015000D03*
X0135046Y0015000D03*
X0145046Y0015000D03*
X0155046Y0015000D03*
X0165046Y0015000D03*
X0175046Y0015000D03*
X0185046Y0015000D03*
X0195046Y0015000D03*
X0215046Y0015000D03*
X0225046Y0015000D03*
X0235046Y0015000D03*
X0245046Y0015000D03*
X0255046Y0015000D03*
X0265046Y0015000D03*
X0117046Y0059900D03*
X0107046Y0059900D03*
X0106946Y0087900D03*
X0116946Y0087900D03*
X0119046Y0205000D03*
X0109046Y0205000D03*
X0099046Y0205000D03*
X0089046Y0205000D03*
X0129046Y0205000D03*
X0139046Y0205000D03*
X0149046Y0205000D03*
X0159046Y0205000D03*
X0169046Y0205000D03*
X0179046Y0205000D03*
X0195046Y0205000D03*
X0205046Y0205000D03*
X0215046Y0205000D03*
X0225046Y0205000D03*
X0235046Y0205000D03*
X0245046Y0205000D03*
X0255046Y0205000D03*
X0265046Y0205000D03*
D13*
X0230046Y0179300D02*
X0230046Y0173700D01*
X0220046Y0173700D02*
X0220046Y0179300D01*
X0210046Y0179300D02*
X0210046Y0173700D01*
X0200046Y0173700D02*
X0200046Y0179300D01*
X0190046Y0179300D02*
X0190046Y0173700D01*
X0180046Y0173700D02*
X0180046Y0179300D01*
X0170046Y0179300D02*
X0170046Y0173700D01*
X0160046Y0173700D02*
X0160046Y0179300D01*
X0150046Y0179300D02*
X0150046Y0173700D01*
X0140046Y0173700D02*
X0140046Y0179300D01*
X0130046Y0179300D02*
X0130046Y0173700D01*
X0120046Y0173700D02*
X0120046Y0179300D01*
X0110046Y0179300D02*
X0110046Y0173700D01*
X0100046Y0173700D02*
X0100046Y0179300D01*
X0100046Y0149300D02*
X0100046Y0143700D01*
X0110046Y0143700D02*
X0110046Y0149300D01*
X0120046Y0149300D02*
X0120046Y0143700D01*
X0130046Y0143700D02*
X0130046Y0149300D01*
X0140046Y0149300D02*
X0140046Y0143700D01*
X0150046Y0143700D02*
X0150046Y0149300D01*
X0160046Y0149300D02*
X0160046Y0143700D01*
X0170046Y0143700D02*
X0170046Y0149300D01*
X0180046Y0149300D02*
X0180046Y0143700D01*
X0190046Y0143700D02*
X0190046Y0149300D01*
X0200046Y0149300D02*
X0200046Y0143700D01*
X0210046Y0143700D02*
X0210046Y0149300D01*
X0220046Y0149300D02*
X0220046Y0143700D01*
X0230046Y0143700D02*
X0230046Y0149300D01*
D14*
X0195046Y0127400D03*
X0176046Y0127400D03*
X0266046Y0087000D03*
X0081146Y0174800D03*
X0062146Y0174800D03*
X0077046Y0080300D03*
X0077046Y0061400D03*
D15*
X0085046Y0061400D03*
X0085046Y0080300D03*
X0100546Y0111000D03*
X0100546Y0121000D03*
X0100546Y0131000D03*
X0130546Y0131000D03*
X0130546Y0121000D03*
X0130546Y0111000D03*
X0146146Y0127300D03*
X0156146Y0127300D03*
X0170846Y0112000D03*
X0180846Y0112000D03*
X0190046Y0112000D03*
X0200046Y0112000D03*
X0220046Y0110000D03*
X0220046Y0120000D03*
X0220046Y0131000D03*
X0250046Y0131000D03*
X0250046Y0120000D03*
X0250046Y0110000D03*
X0274046Y0087000D03*
X0260546Y0168250D03*
X0260546Y0178250D03*
X0260546Y0188250D03*
X0088546Y0190600D03*
X0078546Y0190600D03*
X0068846Y0190500D03*
X0058846Y0190500D03*
X0092646Y0037000D03*
X0092646Y0026400D03*
X0092646Y0015800D03*
X0112646Y0015800D03*
X0112646Y0026400D03*
X0112646Y0037000D03*
D16*
X0075657Y0126500D03*
X0075657Y0131500D03*
X0075657Y0136500D03*
X0075657Y0141500D03*
X0075657Y0146500D03*
X0075657Y0151500D03*
X0075657Y0156500D03*
X0075657Y0161500D03*
X0054436Y0161500D03*
X0054436Y0156500D03*
X0054436Y0151500D03*
X0054436Y0146500D03*
X0054436Y0141500D03*
X0054436Y0136500D03*
X0054436Y0131500D03*
X0054436Y0126500D03*
D17*
X0045893Y0132000D03*
X0039200Y0132000D03*
X0039200Y0140400D03*
X0045893Y0140400D03*
X0045893Y0149000D03*
X0039200Y0149000D03*
X0039200Y0167500D03*
X0045893Y0167500D03*
X0045893Y0106500D03*
X0039200Y0106500D03*
X0071700Y0107000D03*
X0078393Y0107000D03*
X0140046Y0111054D03*
X0140046Y0117746D03*
X0140046Y0099346D03*
X0140046Y0092654D03*
X0140046Y0084346D03*
X0140046Y0077654D03*
X0164546Y0080754D03*
X0164546Y0087446D03*
X0164546Y0092654D03*
X0164546Y0099346D03*
X0134746Y0038246D03*
X0134746Y0031554D03*
D18*
X0048646Y0188500D03*
X0023046Y0188500D03*
X0023046Y0206300D03*
X0048646Y0206300D03*
D19*
X0265546Y0125000D03*
X0275546Y0125000D03*
X0275546Y0115000D03*
X0265546Y0115000D03*
X0265546Y0105000D03*
X0275546Y0105000D03*
X0268546Y0060000D03*
D20*
X0062251Y0053937D02*
X0062251Y0046063D01*
X0053983Y0031102D02*
X0046109Y0031102D01*
X0038235Y0046063D02*
X0038235Y0053937D01*
D21*
X0038803Y0124400D03*
X0045890Y0124400D03*
D22*
X0052446Y0094900D03*
X0052446Y0085900D03*
X0052446Y0076900D03*
D23*
X0027646Y0085800D03*
D24*
X0053428Y0107260D03*
X0053428Y0114740D03*
X0063665Y0114740D03*
X0063665Y0111000D03*
X0063665Y0107260D03*
D25*
X0071700Y0115100D03*
X0078393Y0115100D03*
X0164546Y0075546D03*
X0164546Y0068854D03*
X0134746Y0050846D03*
X0134746Y0044154D03*
X0045893Y0175600D03*
X0039200Y0175600D03*
D26*
X0188019Y0097559D03*
X0188019Y0089685D03*
X0188019Y0081811D03*
X0188019Y0073937D03*
X0188019Y0066063D03*
X0188019Y0058189D03*
X0188019Y0050315D03*
X0188019Y0042441D03*
X0247074Y0042441D03*
X0247074Y0050315D03*
X0247074Y0058189D03*
X0247074Y0066063D03*
X0247074Y0073937D03*
X0247074Y0081811D03*
X0247074Y0089685D03*
X0247074Y0097559D03*
D27*
X0243137Y0097559D03*
X0243137Y0089685D03*
X0243137Y0081811D03*
X0243137Y0073937D03*
X0243137Y0066063D03*
X0243137Y0058189D03*
X0243137Y0050315D03*
X0243137Y0042441D03*
X0191956Y0042441D03*
X0191956Y0050315D03*
X0191956Y0058189D03*
X0191956Y0066063D03*
X0191956Y0073937D03*
X0191956Y0081811D03*
X0191956Y0089685D03*
X0191956Y0097559D03*
D28*
X0275996Y0070000D03*
X0275996Y0050000D03*
D29*
X0271996Y0060000D03*
D30*
X0275896Y0054506D03*
X0275896Y0065494D03*
D31*
X0164534Y0051857D03*
X0164534Y0049298D03*
X0164534Y0046739D03*
X0164534Y0044180D03*
X0164534Y0041620D03*
X0164534Y0039061D03*
X0164534Y0036502D03*
X0164534Y0033943D03*
X0141559Y0033943D03*
X0141559Y0036502D03*
X0141559Y0039061D03*
X0141559Y0041620D03*
X0141559Y0044180D03*
X0141559Y0046739D03*
X0141559Y0049298D03*
X0141559Y0051857D03*
D32*
X0147716Y0077260D03*
X0156377Y0081000D03*
X0147716Y0084740D03*
X0147716Y0092260D03*
X0156377Y0096000D03*
X0147716Y0099740D03*
D33*
X0031976Y0150882D03*
X0031976Y0153441D03*
X0031976Y0156000D03*
X0031976Y0158559D03*
X0031976Y0161118D03*
D34*
X0030008Y0164480D03*
X0030008Y0147520D03*
D35*
X0021346Y0156000D03*
D36*
X0021346Y0141500D03*
X0021346Y0170500D03*
D37*
X0032746Y0023337D03*
X0032746Y0015463D03*
D38*
X0022146Y0015500D03*
X0022046Y0023400D03*
D39*
X0258346Y0137961D03*
X0258346Y0158039D03*
D40*
X0153086Y0067884D02*
X0153086Y0066600D01*
X0153086Y0067884D02*
X0153976Y0067884D01*
X0153976Y0066600D01*
X0153086Y0066600D01*
X0153086Y0067488D02*
X0153976Y0067488D01*
X0154897Y0067648D02*
X0156181Y0067648D01*
X0156181Y0066758D01*
X0154897Y0066758D01*
X0154897Y0067648D01*
X0154897Y0067646D02*
X0156181Y0067646D01*
X0156181Y0065679D02*
X0154897Y0065679D01*
X0156181Y0065679D02*
X0156181Y0064789D01*
X0154897Y0064789D01*
X0154897Y0065679D01*
X0154897Y0065677D02*
X0156181Y0065677D01*
X0156181Y0063711D02*
X0154897Y0063711D01*
X0156181Y0063711D02*
X0156181Y0062821D01*
X0154897Y0062821D01*
X0154897Y0063711D01*
X0154897Y0063709D02*
X0156181Y0063709D01*
X0156181Y0061742D02*
X0154897Y0061742D01*
X0156181Y0061742D02*
X0156181Y0060852D01*
X0154897Y0060852D01*
X0154897Y0061742D01*
X0154897Y0061740D02*
X0156181Y0061740D01*
X0153086Y0061900D02*
X0153086Y0060616D01*
X0153086Y0061900D02*
X0153976Y0061900D01*
X0153976Y0060616D01*
X0153086Y0060616D01*
X0153086Y0061504D02*
X0153976Y0061504D01*
X0151117Y0061900D02*
X0151117Y0060616D01*
X0151117Y0061900D02*
X0152007Y0061900D01*
X0152007Y0060616D01*
X0151117Y0060616D01*
X0151117Y0061504D02*
X0152007Y0061504D01*
X0150196Y0061742D02*
X0148912Y0061742D01*
X0150196Y0061742D02*
X0150196Y0060852D01*
X0148912Y0060852D01*
X0148912Y0061742D01*
X0148912Y0061740D02*
X0150196Y0061740D01*
X0150196Y0063711D02*
X0148912Y0063711D01*
X0150196Y0063711D02*
X0150196Y0062821D01*
X0148912Y0062821D01*
X0148912Y0063711D01*
X0148912Y0063709D02*
X0150196Y0063709D01*
X0150196Y0065679D02*
X0148912Y0065679D01*
X0150196Y0065679D02*
X0150196Y0064789D01*
X0148912Y0064789D01*
X0148912Y0065679D01*
X0148912Y0065677D02*
X0150196Y0065677D01*
X0150196Y0067648D02*
X0148912Y0067648D01*
X0150196Y0067648D02*
X0150196Y0066758D01*
X0148912Y0066758D01*
X0148912Y0067648D01*
X0148912Y0067646D02*
X0150196Y0067646D01*
X0151117Y0067884D02*
X0151117Y0066600D01*
X0151117Y0067884D02*
X0152007Y0067884D01*
X0152007Y0066600D01*
X0151117Y0066600D01*
X0151117Y0067488D02*
X0152007Y0067488D01*
D41*
X0148016Y0110260D03*
X0156677Y0114000D03*
X0148016Y0117740D03*
M02*
