%
M48
M72
T01C0.01181
T02C0.02756
T03C0.03150
T04C0.03200
T05C0.03346
T06C0.03937
T07C0.04000
%
T01
X30846Y187100
X22446Y182500
X18246Y183300
X24146Y176600
X38246Y180400
X55346Y180100
X55146Y170700
X45546Y159200
X40996Y159250
X41046Y156000
X37246Y153200
X34346Y147000
X27746Y137600
X27746Y132600
X33346Y129700
X34446Y124400
X22746Y122600
X34746Y138700
X53046Y121900
X59146Y122000
X63946Y122000
X59046Y126500
X62746Y129900
X69746Y126500
X81846Y124800
X88046Y128300
X92146Y124900
X95546Y121800
X98546Y115700
X95546Y112300
X83946Y117000
X78446Y111000
X83746Y107000
X87246Y97200
X89246Y91600
X95146Y90100
X95246Y85400
X95246Y80400
X95246Y75400
X106846Y74800
X106846Y69800
X111846Y74800
X111846Y79800
X106846Y79800
X112146Y92600
X99046Y100400
X109246Y103500
X116246Y103600
X122646Y103000
X130846Y100300
X133146Y95200
X129546Y90100
X135746Y84400
X140346Y88600
X143746Y80900
X151246Y72300
X155546Y72250
X159246Y68400
X169046Y67300
X170446Y71100
X167246Y62000
X162296Y60500
X153546Y57750
X149696Y54750
X146846Y51900
X146846Y46700
X146746Y41600
X152046Y40700
X153046Y36900
X148446Y28300
X141946Y28700
X143396Y23800
X130796Y25950
X122146Y27900
X119546Y20500
X105046Y15000
X100546Y10100
X100546Y20900
X100446Y34600
X88546Y44600
X88746Y55100
X110546Y53800
X117696Y45750
X114946Y42600
X122646Y45900
X126546Y43300
X124546Y39700
X131503Y38661
X130246Y50800
X139346Y54700
X139246Y58100
X142897Y60949
X135846Y65500
X129346Y68000
X125946Y68100
X126246Y60800
X126646Y79300
X159146Y100000
X156146Y103900
X150146Y103800
X164546Y108000
X168446Y116700
X171846Y119800
X170546Y127900
X161746Y128100
X161646Y133100
X155446Y134100
X153046Y139200
X144946Y141100
X135046Y141200
X124946Y141300
X120046Y134600
X114946Y141300
X111846Y129800
X104646Y124900
X110446Y118200
X119046Y120300
X131546Y125900
X151346Y122500
X156946Y119100
X144446Y113800
X168746Y99300
X175846Y97700
X175846Y92700
X168746Y87300
X171546Y84200
X198046Y97700
X200846Y97700
X204996Y99750
X223446Y101300
X229046Y99300
X229146Y95700
X233946Y96300
X229146Y92100
X230846Y85900
X225846Y85900
X217546Y78900
X215246Y76100
X220546Y76500
X232246Y77900
X231146Y69100
X219546Y59800
X215546Y59800
X215546Y55000
X219546Y54800
X215546Y50000
X219546Y49800
X219546Y44800
X215546Y45000
X214546Y39800
X219546Y39800
X214946Y31900
X225046Y29000
X235046Y26000
X245046Y23100
X255046Y20200
X272846Y18100
X276946Y22300
X261446Y38500
X263546Y41000
X264746Y43900
X264946Y47000
X264846Y50300
X264846Y53400
X265746Y66400
X262646Y66400
X259546Y66400
X269946Y77800
X274946Y77800
X279946Y77800
X259946Y82800
X259946Y87800
X264346Y97500
X272646Y97800
X276646Y97800
X256846Y111000
X259146Y120000
X253446Y126500
X259346Y130200
X246046Y128000
X246046Y124000
X234646Y124200
X229346Y125600
X229046Y120000
X221746Y125600
X213546Y126100
X213546Y130200
X204446Y125700
X204546Y121600
X199546Y121600
X204646Y117500
X213446Y121900
X230646Y134000
X234546Y128800
X244046Y134550
X244046Y138250
X236046Y139800
X235446Y145050
X239946Y151200
X243846Y151200
X244046Y147000
X251046Y153400
X250946Y157900
X240346Y165600
X239846Y170100
X239946Y174700
X242446Y182900
X235546Y184600
X221946Y191500
X215046Y189200
X205046Y186650
X195046Y182800
X185046Y181600
X174846Y182300
X181946Y194800
X184346Y198600
X188846Y200300
X187046Y205700
X165046Y197300
X155546Y185000
X151646Y185000
X136946Y191400
X131746Y191500
X126746Y189300
X122646Y194500
X124246Y201100
X134046Y201200
X113846Y201200
X104146Y198900
X105046Y191500
X114146Y188300
X96146Y189200
X91746Y182700
X86646Y185400
X81546Y185500
X81846Y197400
X67446Y197400
X72146Y171400
X84146Y163900
X84146Y158900
X89046Y158900
X88946Y154000
X84146Y153900
X81146Y151500
X84146Y148900
X71046Y146900
X71046Y141500
X83046Y139200
X85846Y134200
X91546Y135700
X94746Y138500
X96346Y158000
X89146Y163900
X86746Y172700
X92146Y172600
X115546Y164400
X120046Y158400
X124846Y164600
X130046Y160900
X135046Y167300
X140046Y163400
X145246Y169200
X150046Y165800
X165046Y168900
X174846Y168900
X186446Y168900
X193846Y168600
X206446Y169500
X215046Y156600
X207046Y153800
X226946Y154500
X233346Y154500
X267446Y156800
X267446Y161600
X269446Y172000
X269246Y177000
X269346Y182100
X230246Y200900
X164846Y152300
X164046Y139250
X170796Y134250
X175046Y140900
X195796Y137250
X225746Y110000
X231746Y110000
X204546Y84800
X204546Y79800
X204546Y74800
X199546Y69800
X205146Y61200
X201646Y57700
X201346Y42400
X198346Y42400
X172346Y31700
X169346Y36500
X159146Y28700
X179846Y22000
X201946Y17300
X201946Y12300
X248846Y36600
X252046Y36600
X255346Y36600
X258646Y36800
X236446Y50400
X233446Y50400
X168846Y44100
X80146Y12700
X60146Y17700
X40146Y17700
X37346Y31300
X38646Y38500
X43646Y38500
X48646Y38500
X42746Y62600
X40046Y72200
X35046Y72200
X30046Y72200
X25046Y72200
X20046Y72200
X20046Y77200
X20046Y82200
X20046Y87200
X20046Y92200
X20046Y97200
X25046Y97200
X30046Y97200
X35046Y97200
X40046Y97200
X60146Y95000
X64446Y94900
X77046Y95900
X61746Y75500
X64646Y70200
X58246Y70200
X115546Y109400
X67246Y152900
X63446Y153000
X59646Y153000
X67846Y156900
X26446Y161100
X134946Y183300
X281146Y129200
T02
X32746Y23337
X32746Y15463
T03
X191956Y97559
X191956Y89685
X191956Y81811
X191956Y73937
X191956Y66063
X191956Y58189
X191956Y50315
X191956Y42441
X243137Y42441
X243137Y50315
X243137Y58189
X243137Y66063
X243137Y73937
X243137Y81811
X243137Y89685
X243137Y97559
T04
X92646Y15800
X92646Y26400
X92646Y37000
X112646Y37000
X112646Y26400
X112646Y15800
X117046Y59900
X107046Y59900
X85046Y61400
X77046Y61400
X77046Y80300
X85046Y80300
X106946Y87900
X116946Y87900
X130546Y111000
X130546Y121000
X130546Y131000
X146146Y127300
X156146Y127300
X176046Y127400
X195046Y127400
X190046Y112000
X180846Y112000
X170846Y112000
X200046Y112000
X220046Y110000
X220046Y120000
X220046Y131000
X220046Y146500
X210046Y146500
X200046Y146500
X190046Y146500
X180046Y146500
X170046Y146500
X160046Y146500
X150046Y146500
X140046Y146500
X130046Y146500
X120046Y146500
X110046Y146500
X100046Y146500
X100546Y131000
X100546Y121000
X100546Y111000
X62146Y174800
X81146Y174800
X100046Y176500
X110046Y176500
X120046Y176500
X130046Y176500
X140046Y176500
X150046Y176500
X160046Y176500
X170046Y176500
X180046Y176500
X190046Y176500
X200046Y176500
X210046Y176500
X220046Y176500
X230046Y176500
X260546Y178250
X260546Y188250
X260546Y168250
X230046Y146500
X250046Y131000
X250046Y120000
X250046Y110000
X266046Y87000
X274046Y87000
X88546Y190600
X78546Y190600
X68846Y190500
X58846Y190500
T05
X30008Y164480
X30008Y147520
T06
X89046Y205000
X99046Y205000
X109046Y205000
X119046Y205000
X129046Y205000
X139046Y205000
X149046Y205000
X159046Y205000
X169046Y205000
X179046Y205000
X195046Y205000
X205046Y205000
X215046Y205000
X225046Y205000
X235046Y205000
X245046Y205000
X255046Y205000
X265046Y205000
X258346Y158039
X258346Y137961
X265046Y15000
X255046Y15000
X245046Y15000
X235046Y15000
X225046Y15000
X215046Y15000
X195046Y15000
X185046Y15000
X175046Y15000
X165046Y15000
X155046Y15000
X145046Y15000
X135046Y15000
X125046Y15000
X50046Y31102
X38235Y50000
X62251Y50000
T07
X23046Y206300
X48646Y206300
X48646Y188500
X23046Y188500
X265546Y105000
X275546Y105000
X275546Y115000
X265546Y115000
X265546Y125000
X275546Y125000
X268546Y60000
M30
